<?xml version="1.0" encoding="UTF-8"?>
<svg id="Camada_2" xmlns="http://www.w3.org/2000/svg" viewBox="0 0 648.71 829.48">
  <defs>
    <style>
      .cls-1 {
        fill: #e0e0e0;
      }

      .cls-2 {
        fill: #011914;
      }

      .cls-2, .cls-3, .cls-4, .cls-5, .cls-6, .cls-7, .cls-8, .cls-9, .cls-10, .cls-11 {
        stroke-miterlimit: 10;
      }

      .cls-2, .cls-5, .cls-7, .cls-8, .cls-9, .cls-10, .cls-11 {
        stroke: #030084;
      }

      .cls-3 {
        fill: #ea548e;
        stroke: #a3003f;
      }

      .cls-4 {
        fill: #161f37;
        stroke: #282f6b;
      }

      .cls-5 {
        fill: #cecece;
      }

      .cls-6 {
        fill: #707070;
        stroke: #e0e0e0;
        stroke-width: .25px;
      }

      .cls-7 {
        fill: #9cd7ff;
      }

      .cls-8 {
        fill: #bdbdc6;
      }

      .cls-9 {
        fill: #fff;
      }

      .cls-10 {
        fill: none;
      }

      .cls-11 {
        fill: #0e3f3a;
      }
    </style>
  </defs>
  <g id="sobrancelha">
    <g>
      <path class="cls-8" d="M407.97,673.68s-7.3-11.05-37.42-17.43-39.77,5.4-39.77,5.4c0,0-2.11,25.36,35.17,24.98s42.02-12.95,42.02-12.95Z"/>
      <path class="cls-7" d="M385.18,714.94l3.44-49.24s.56-15.23.56-25.45l-6.54-71.52-8-52.51-27.52,5.02,12.34,109.01s.17,9.85-.42,16.5l-.27,6.12-4.18,52.68,30.59,9.39Z"/>
      <path class="cls-5" d="M408.13,673.39s-4.23,12.95-42.02,12.95-35.17-24.98-35.17-24.98l-2.28,2.51-4.43,8.51-19.22,81.36-5.29,28.26s-.34,9.87,16.68,11.57c0,0,24.85,3.4,43.57,20.09,0,0,13.28,14.3,68.77,15.32,0,0,41.91-.31,66.38-18.63,2.03-1.52,3.25-3.88,3.44-6.41.91-12.19,1.82-49.58-19.1-66.54,0,0-12.26-9.87-50.04-13.96,0,0-22.77-8.73-16.36-37.54.66-2.97.02-6.07-1.75-8.54l-3.19-3.97Z"/>
      <ellipse class="cls-6" cx="371.93" cy="726.16" rx=".94" ry="2.29" transform="translate(-404.54 475.68) rotate(-45)"/>
      <path class="cls-1" d="M373.48,726.38c11.56-10.07,27.55-13.81,42.53-11.71,1.57.22,2.25-2.19.66-2.41-15.94-2.24-32.67,1.63-44.96,12.35-1.21,1.06.56,2.82,1.77,1.77h0Z"/>
      <ellipse class="cls-6" cx="375.55" cy="731.65" rx=".94" ry="2.29" transform="translate(-346.66 338.24) rotate(-34.25)"/>
      <path class="cls-1" d="M429.61,722.53c-4.37-1.28-9.3-1.3-13.8-1.18-13.66.36-27.08,3.94-39.84,8.61-1.5.55-.85,2.97.66,2.41,12.56-4.6,25.74-8.16,39.18-8.52,4.29-.12,8.97-.13,13.14,1.09,1.55.45,2.21-1.96.66-2.41h0Z"/>
      <ellipse class="cls-6" cx="387.22" cy="746.99" rx=".94" ry="2.29" transform="translate(-448.69 842.8) rotate(-69.14)"/>
      <path class="cls-1" d="M388.8,746.58c8.52-13.29,25.34-20.39,40.79-21.1,1.6-.07,1.61-2.57,0-2.5-16.37.76-33.93,8.26-42.95,22.34-.87,1.36,1.29,2.61,2.16,1.26h0Z"/>
      <path class="cls-1" d="M416.37,713.93c-12.16,7.2-23.97,18.17-29.73,31.38-.64,1.46,1.52,2.73,2.16,1.26,5.6-12.84,17.01-23.5,28.83-30.49,1.38-.82.13-2.98-1.26-2.16h0Z"/>
      <path class="cls-8" d="M179.68,673.68s7.3-11.05,37.42-17.43,39.77,5.4,39.77,5.4c0,0,2.11,25.36-35.17,24.98s-42.02-12.95-42.02-12.95Z"/>
      <path class="cls-7" d="M32.38,556.11l-3.44-49.24s-.56-15.23-.56-25.45l6.54-71.52,8-52.51,27.52,5.02-12.34,109.01s-.17,9.85.42,16.5l.27,6.12,4.18,52.68-30.59,9.39Z"/>
      <path class="cls-7" d="M209.99,714.94l-3.44-49.24s-.56-15.23-.56-25.45l6.54-71.52,8-52.51,27.52,5.02-12.34,109.01s-.17,9.85.42,16.5l.27,6.12,4.18,52.68-30.59,9.39Z"/>
      <path class="cls-5" d="M180.02,673.39s4.23,12.95,42.02,12.95,35.17-24.98,35.17-24.98l2.28,2.51,4.43,8.51,19.22,81.36,5.29,28.26s.34,9.87-16.68,11.57c0,0-24.85,3.4-43.57,20.09,0,0-13.28,14.3-68.77,15.32,0,0-41.91-.31-66.38-18.63-2.03-1.52-3.25-3.88-3.44-6.41-.91-12.19-1.82-49.58,19.1-66.54,0,0,12.26-9.87,50.04-13.96,0,0,22.77-8.73,16.36-37.54-.66-2.97-.02-6.07,1.75-8.54l3.19-3.97Z"/>
      <ellipse class="cls-6" cx="216.22" cy="726.16" rx="2.29" ry=".94" transform="translate(-450.14 365.58) rotate(-45)"/>
      <path class="cls-1" d="M216.44,724.62c-12.3-10.72-29.02-14.59-44.96-12.35-1.59.22-.91,2.63.66,2.41,14.99-2.1,30.98,1.63,42.53,11.71,1.21,1.05,2.98-.71,1.77-1.77h0Z"/>
      <ellipse class="cls-6" cx="212.61" cy="731.65" rx="2.29" ry=".94" transform="translate(-511.82 495.6) rotate(-55.75)"/>
      <path class="cls-1" d="M159.21,724.94c4.17-1.22,8.85-1.2,13.14-1.09,13.44.35,26.63,3.93,39.18,8.52,1.51.55,2.17-1.86.66-2.41-12.76-4.67-26.18-8.25-39.84-8.61-4.5-.12-9.43-.11-13.8,1.18-1.54.45-.88,2.87.66,2.41h0Z"/>
      <ellipse class="cls-6" cx="200.94" cy="746.99" rx="2.29" ry=".94" transform="translate(-252.85 120.53) rotate(-20.86)"/>
      <path class="cls-1" d="M201.51,745.32c-9.02-14.08-26.58-21.58-42.95-22.34-1.61-.07-1.6,2.43,0,2.5,15.46.72,32.28,7.81,40.79,21.1.87,1.35,3.03.1,2.16-1.26h0Z"/>
      <path class="cls-1" d="M170.53,716.09c11.82,6.99,23.23,17.65,28.83,30.49.64,1.47,2.8.2,2.16-1.26-5.76-13.21-17.56-24.19-29.73-31.38-1.39-.82-2.65,1.34-1.26,2.16h0Z"/>
      <path class="cls-7" d="M49.5,554.62s32.96-7.16,48.78,31.27c0,0,8.02,17.02,22.38,29.13,0,0,9.31,21.23-18.74,19.04,0,0-11-1.5-15.32-20.64-.04-.2-.33-.2-.35,0-.59,4.63-.94,22.88,5.65,33.19,5.26,8.23,9.7,12.46,11.93,16.16,2.17,3.59,2.68,8.02,1.09,11.9-2.04,4.99-7.59,9.68-22.25,5.49,0,0-18.23-5.98-22.17-36.62,0,0,1.96,28.57,22.17,36.62,0,0-11.54,23.17-32.15,2.17,0,0-9.68-9.61-10.35-34.87,0,0,.53,23.75,9.57,33.95,0,0-18.77,13.36-28.12-13.39l-3.38-27.37,3.38,27.37s-16.97,5.31-19.99-15.02c-3.03-20.34,1.1-51.46,1.1-51.46,0,0,4.21-43.74,46.79-46.94Z"/>
      <path class="cls-7" d="M26.95,561.51s-5.01-17.38,20.79-21.08,28.1,18.65,28.1,18.65c0,0-20.58-12.02-48.89,2.43Z"/>
      <path class="cls-7" d="M588.8,506.71l56.68-74.05s5.23-6.79,1.23-16.36l-45.51-72.48-29-46.45-27.09,14.27,59.61,86.35s8.96,18.28,10.93,24.72l-6.72,8.29-47.88,60.08,27.74,15.63Z"/>
      <path class="cls-7" d="M555.87,480.92s32.22,10.41,29.02,42.33-14.1,37.22-14.1,37.22c0,0-20.21,18.09-37.4,8.82,0,0,9.31-1.02,19.17-10.57,0,0-30.7,25.54-39.64-2.39,0,0,5.26,2.59,13.72-2.68,0,0,3.92-2.53,9.16-1.09.26-.26-4.56-.49-9.07,2.12-10.6,6.14-14.38,1.04-14.38,1.04,0,0-12.06-2.8-11.56-13.82,0,0,7.68,2.08,19.17-4.63,2.5-1.46,5.29-2.4,8.18-2.48,2.24-.06,4.83.26,7.2,1.52,0,0-9.47-1.63-12.74.38-14.31,8.81-21.22,5.93-21.22,5.93,0,0-19.18-10.89-9.61-26.74,0,0,3.1-3.83,11.57-6.38,0,0,8.56-1.07,12.67-3.42s8.73-3.97,8.73-3.97c0,0-7.5,3.22-8.73,3.97-5.18,3.17-12.56,3.81-12.56,3.81,0,0-13.32,2.5-13.86,13.76-.54,11.18,10.62,18.55,11.48,18.56,0,0,1.24,13.66-12.23,7.11-13.47-6.55-8.28-40.29-8.28-40.29,0,0,1.34-22.43,34.99-27.08s40.32-1.02,40.32-1.02Z"/>
      <path class="cls-7" d="M585.06,517.01s16.06-5.98,3.75-26.64c0,0-14.82-25.27-32.42-9.26,0,0,26.68,7.77,28.67,35.9Z"/>
      <circle class="cls-7" cx="306.18" cy="297.85" r="275.35"/>
      <ellipse class="cls-3" cx="160.95" cy="115.93" rx="18.38" ry="9.02" transform="translate(-34.84 147.76) rotate(-45)"/>
      <path class="cls-3" d="M173.37,102.45s11.87,6.59,0,22.42-24.5,4.77-24.5,4.77"/>
      <path class="cls-3" d="M164.57,131.88s3.32,3.98,6.64,4.24c2.74.21,8.36-7.77,10.23-10.55.53-.78.66-1.82.18-2.63-1-1.69-2.29-3.18-4.31-3.64"/>
      <circle class="cls-3" cx="310.86" cy="115.6" r="13.15"/>
      <ellipse class="cls-3" cx="308.53" cy="37.17" rx="10.81" ry="6.13"/>
      <path class="cls-3" d="M297.71,37.17s-2.12,12.51,10.81,12,12.4-7.15,10.81-12"/>
      <path class="cls-3" d="M300.16,46.48s4.95,2.95,3.81,16.74c0,0,6.26,6.38,13.66,0,0,0-3.06-8.76,0-16.45"/>
      <ellipse class="cls-3" cx="244.42" cy="32.46" rx="15.42" ry="7.81" transform="translate(-.46 61.24) rotate(-14.27)"/>
      <path class="cls-3" d="M229.48,36.26s1.85,15.21,18.96,12.27,10.93-19.87,10.93-19.87"/>
      <path class="cls-3" d="M240.52,48.97s2.95.37,3.9,8.92c0,0,9.25,2.31,13.97-4.46,0,0-2.29-.7-2.55-8.08"/>
      <path class="cls-3" d="M289.54,5.94s20.26-13.79,36.26,2.55c0,0,.68,4.6-4.09,7.49,0,0-2.38,2.19-.34,5.52l-26.05.21s1.54-1.65-.16-5.39c0,0-7.49-1.7-5.62-10.38Z"/>
      <path class="cls-3" d="M379.58,14.1s23.54-6.81,33.67,13.7c0,0-.78,4.58-6.21,5.85,0,0-2.95,1.35-2.04,5.14l-24.83-7.9s1.98-1.09,1.52-5.18c0,0-6.59-3.95-2.11-11.61Z"/>
      <path class="cls-3" d="M516.65,94.9s23.77,5.93,22.24,28.75c0,0-2.98,3.57-8.31,1.94,0,0-3.22-.32-4.35,3.42l-17.51-19.29s2.26.05,3.92-3.71c0,0-3.72-6.72,4.01-11.1Z"/>
      <path class="cls-3" d="M581.53,296.85h7.24s3.83-12.54,12.26-12.79,9.96,16.34,9.96,16.34c0,0,1.79,26.81-9.96,27.32s-11.74-13.28-11.74-13.28l-8.28-.52.52-17.07Z"/>
      <path class="cls-3" d="M561.2,239.77s4.34-6.38,11.23,0c6.89,6.38,9.1.51,9.1.51,0,0,10.18-14.17-4.63-24.51,0,0-7.4-2.17-9.57,5.11,0,0,.38,5.23-6.13,4.6,0,0-6.26,4.85,0,14.3Z"/>
      <ellipse class="cls-3" cx="536.52" cy="347.02" rx="17.14" ry="8.26" transform="translate(55.57 767.69) rotate(-74.07)"/>
      <path class="cls-3" d="M543.89,332.63s-5.8-10.36-18.69.41c-5.96,4.98-8.3,13.2-5.43,20.42,1.81,4.57,5.32,8.88,12.05,10.04"/>
      <ellipse class="cls-3" cx="452.26" cy="119.5" rx="9.55" ry="17.95" transform="translate(.84 242.14) rotate(-30)"/>
      <path class="cls-3" d="M444.14,103.56s-12.13,3.06-10.47,20.42c0,0,1.28,5.87-7.4,9.19,0,0,3.06,9.19,15.57,11.36,0,0-1.66-6.38,3.57-6.64s6.88,1.96,15.82-2.85"/>
      <ellipse class="cls-3" cx="430.61" cy="415.56" rx="13.83" ry="10.2" transform="translate(-149.44 562.71) rotate(-58.22)"/>
      <path class="cls-3" d="M427.76,428.48s-16.86,1.62-15.8-13.09c.58-8.05,6.42-14.93,14.42-15.89,4.1-.49,8.73.58,12.91,5.41"/>
      <ellipse class="cls-3" cx="461.79" cy="504.37" rx="16.34" ry="6.92" transform="translate(-204.29 349.54) rotate(-34.44)"/>
      <path class="cls-3" d="M448.32,513.61s-5.5-1.46-2.18-17.03c0,0,.77-1.7.01-3.29-.64-1.35-.77-2.88-.13-4.24,1.24-2.64,4.01-5.96,9.95-4.95,1.02.17,1.85.92,2.1,1.92.28,1.11,1.16,2.54,3.73,2.98,0,0,13.67,1.17,13.48,6.13"/>
      <ellipse class="cls-3" cx="380.27" cy="554.56" rx="16" ry="4.68" transform="translate(-142.06 131.1) rotate(-16.53)"/>
      <path class="cls-3" d="M365.03,557.97s-1.74-5.48,1.91-12.1c.31-.55.67-1.07,1.09-1.55.74-.83,2.32-3.48,2.21-10.85-.01-.65.23-1.27.69-1.73,1.14-1.13,3.67-2.93,7.59-1.99.52.13.94.52,1.06,1.05.49,2.13,2.07,7.85,5.11,8.4,0,0,10.12,3.72,10.92,10.79"/>
      <ellipse class="cls-3" cx="260.43" cy="523.86" rx="10.49" ry="17" transform="translate(-314.99 629.45) rotate(-73.96)"/>
      <path class="cls-3" d="M275.93,522.71s-3.11-6.1-.61-11.07c.32-.64.16-1.41-.42-1.83-2.42-1.78-8.84-5.83-16.24-5.05-.36.04-.66.28-.78.62-.54,1.56-2.51,6.08-7.82,8.3"/>
      <ellipse class="cls-3" cx="157.17" cy="499.5" rx="10.03" ry="16.25" transform="translate(-307.17 257.44) rotate(-45)"/>
      <path class="cls-3" d="M169.86,509.32s4.28-4.66,3.94-13.51c0,0,.92-4.46,4.38-3.73.23.05.43-.18.34-.4-1.04-2.5-5.87-12.55-16.21-13.2-.32-.02-.59.22-.63.53-.11.95-.54,2.81-2.17,3.19,0,0-10.98.54-14.24,6.29"/>
      <ellipse class="cls-3" cx="176.35" cy="416.77" rx="10.85" ry="15.06" transform="translate(-222.1 202.23) rotate(-38.77)"/>
      <path class="cls-3" d="M164.84,407.55s8.11-15.19,21.89-3.4c15.15,12.96.08,24.01,0,23.46"/>
      <ellipse class="cls-3" cx="88.23" cy="207.39" rx="16.25" ry="10.03" transform="translate(-136.75 220.72) rotate(-70.35)"/>
      <path class="cls-3" d="M84.79,223.06s6.04,1.87,13.89-2.22c0,0,4.43-1.08,5.25,2.36.06.23.35.31.51.13,1.81-2.01,8.83-10.68,4.99-20.3-.12-.29-.45-.44-.75-.34-.91.3-2.77.71-3.81-.6,0,0-5.19-9.69-11.78-10.18"/>
      <path class="cls-3" d="M30.3,296.85h-7.24s-3.83-12.54-12.26-12.79-9.96,16.34-9.96,16.34c0,0-1.79,26.81,9.96,27.32s11.74-13.28,11.74-13.28l8.28-.52-.52-17.07Z"/>
      <path class="cls-3" d="M49.4,156.47c.34-5.44,2.74-22.1,19.56-26.84,1.65-.46,3.44.08,4.51,1.42.95,1.19,1.81,2.98,1.75,5.55,0,0,.55,3.19,4.46,3.28l-13.93,22.01s-.55-2.19-4.62-2.79c0,0-4.67,4.58-10.33.35-.94-.7-1.46-1.82-1.39-2.98Z"/>
      <path class="cls-3" d="M489.23,503.07s5.69,4.67,5.14,8.93c-.2,1.55.42,3.1,1.5,4.22,2.32,2.42,6.7,4.97,13.2.65,0,0,19.06-13.06,13.36-24,0,0-.7-2.99-4.11-5.23-.82-.53-1.8-.74-2.76-.57-1.38.24-3.92.04-6.75-3.31l-19.58,19.32Z"/>
      <path class="cls-3" d="M537.46,446.34l2.98,2.15s-2.04,10.38,4.26,12.6,8.77.6,8.77.6c0,0,15.56-6.05,14.66-26.78-.08-1.96-.71-3.89-1.97-5.39-2.27-2.69-7.11-4.96-17.03.93l-1.58-.95-10.08,16.85Z"/>
      <path class="cls-3" d="M172.8,54.48l-1.64-3.28s6.63-8.25,2.08-13.13-7.49-4.6-7.49-4.6c0,0-16.59-1.87-25.42,16.91-.83,1.77-1.18,3.78-.75,5.69.76,3.44,4,7.69,15.52,7.08l.96,1.58,16.75-10.24Z"/>
      <ellipse class="cls-3" cx="64.97" cy="473.45" rx="4.68" ry="16" transform="translate(-305.44 171.5) rotate(-43)"/>
      <path class="cls-3" d="M55.12,461.33s4.13-4,11.69-3.68c.63.03,1.26.12,1.87.29,1.07.29,4.15.53,10.69-2.86.57-.3,1.74-.79,1.85-.15.32,1.92,2.47,4.2,4.04,6.31.32.43,1.08.67.66,1.01-1.69,1.38-6.1,5.35-5.24,8.32,0,0,1.18,10.72-4.8,14.59"/>
      <circle class="cls-3" cx="495.58" cy="215.46" r="13.15"/>
      <ellipse class="cls-3" cx="66.96" cy="352.12" rx="5.49" ry="14.55" transform="translate(-73.6 22.4) rotate(-12.32)"/>
      <path class="cls-3" d="M62.51,338.76s4.52-7.23,13.58-2.76c6.4,3.16,6.69,14.72,6.31,21.24-.25,4.28-2.94,8.15-7,9.52-2.18.74-4.75.76-7.47-.96"/>
      <path class="cls-3" d="M81.54,360.93s3.53-3.86,7.65-2.43c.45.16.93-.11,1.03-.58.5-2.5,1.48-9.52-2.13-14.3-.18-.24-.53-.25-.75-.05-.7.66-2.46,1.75-5.8.67"/>
      <g>
        <path class="cls-9" d="M376.86,384.4c-43.99,63.84-87.97,63.84-131.96,0,0,0,69.53,43.97,131.96,0Z"/>
        <path class="cls-10" d="M244.9,384.4s61.74,79.36,131.96,0"/>
      </g>
      <path class="cls-9" d="M470.43,296.71c-1.3,29.92-23.24,48.45-58.65,54.3-34.83,5.76-64.53-21.87-64.99-56.46-.81-61.3,29.55-61.62,65.11-61.3,35.94.32,60.63,15.11,58.52,63.45Z"/>
      <path class="cls-11" d="M442.53,290.72c0,24.88-18.11,45.47-43.66,44.02-25.4-1.44-43.3-26.43-43.79-47.75-.57-24.87,15.52-41.32,41.11-41.32s46.34,20.17,46.34,45.04Z"/>
      <path class="cls-2" d="M428.84,288.67c0,19.67-13.67,35.96-32.96,34.81-19.17-1.14-32.69-20.9-33.06-37.76-.43-19.67,11.71-32.67,31.04-32.67s34.99,15.95,34.99,35.62Z"/>
      <path class="cls-9" d="M139.47,296.71c1.3,29.92,23.24,48.45,58.65,54.3,34.83,5.76,64.53-21.87,64.99-56.46.81-61.3-30.17-59.57-65.73-59.26-35.94.32-60.01,13.07-57.9,61.41Z"/>
      <path class="cls-11" d="M164.57,293.97c0,24.88,18.11,45.47,43.66,44.02,25.4-1.44,43.3-26.43,43.79-47.75.57-24.87-15.52-41.32-41.11-41.32s-46.34,20.17-46.34,45.04Z"/>
      <path class="cls-2" d="M175.29,290.62c0,19.67,13.67,35.96,32.96,34.81,19.17-1.14,32.69-20.9,33.06-37.76.43-19.67-11.71-32.67-31.04-32.67s-34.99,15.95-34.99,35.62Z"/>
      <path class="cls-4" d="M462.21,203.06s-9.87-3.77-56.23-2.4l-54.23.79c-3.54-.03-6.66,2.55-7.05,6.07-.08.74-.05,1.54.15,2.39.77,3.27,3.75,5.55,7.11,5.67l56.92,2.03s37.27-.58,57.22,11.51c0,0,6.63,8.62,11.58,0s-4.06-18.54-4.06-18.54c0,0-2.91-4.25-11.41-7.51Z"/>
      <path class="cls-4" d="M155.68,203.06s9.87-3.77,56.23-2.4l54.23.79c3.54-.03,6.66,2.55,7.05,6.07.08.74.05,1.54-.15,2.39-.77,3.27-3.75,5.55-7.11,5.67l-56.92,2.03s-37.27-.58-57.22,11.51c0,0-6.63,8.62-11.58,0s4.06-18.54,4.06-18.54c0,0,2.91-4.25,11.41-7.51Z"/>
    </g>
  </g>
</svg>