<?xml version="1.0" encoding="UTF-8"?>
<svg xmlns="http://www.w3.org/2000/svg" version="1.1" viewBox="0 0 619.7 829.5">
  <defs>
    <style>
      .cls-1 {
        fill: #e0e0e0;
      }

      .cls-2 {
        fill: #011914;
      }

      .cls-2, .cls-3, .cls-4, .cls-5, .cls-6, .cls-7, .cls-8, .cls-9, .cls-10 {
        stroke-miterlimit: 10;
      }

      .cls-2, .cls-4, .cls-5, .cls-6, .cls-7, .cls-8, .cls-9, .cls-10 {
        stroke: #030084;
      }

      .cls-3, .cls-11, .cls-12, .cls-13, .cls-14, .cls-15, .cls-16, .cls-17, .cls-18, .cls-19, .cls-20, .cls-21, .cls-22 {
        fill: #ea548e;
        stroke: #a3003f;
      }

      .cls-4 {
        fill: #cecece;
      }

      .cls-23 {
        stroke-miterlimit: 10;
        stroke-width: .3px;
      }

      .cls-23, .cls-24, .cls-25, .cls-26 {
        fill: #707070;
        stroke: #e0e0e0;
      }

      .cls-24 {
        stroke-miterlimit: 10;
        stroke-width: .3px;
      }

      .cls-25 {
        stroke-miterlimit: 10;
        stroke-width: .3px;
      }

      .cls-26 {
        stroke-width: .2px;
      }

      .cls-26, .cls-18 {
        stroke-miterlimit: 10;
      }

      .cls-11 {
        stroke-miterlimit: 10;
        stroke-width: 1px;
      }

      .cls-12 {
        stroke-miterlimit: 10;
        stroke-width: 1px;
      }

      .cls-13 {
        stroke-miterlimit: 10;
        stroke-width: 1px;
      }

      .cls-14 {
        stroke-miterlimit: 10;
        stroke-width: 1px;
      }

      .cls-15 {
        stroke-miterlimit: 10;
        stroke-width: 1px;
      }

      .cls-16 {
        stroke-miterlimit: 10;
        stroke-width: 1px;
      }

      .cls-17 {
        stroke-miterlimit: 10;
        stroke-width: 1px;
      }

      .cls-18 {
        stroke-width: 1px;
      }

      .cls-19 {
        stroke-miterlimit: 10;
        stroke-width: 1px;
      }

      .cls-20 {
        stroke-miterlimit: 10;
        stroke-width: 1px;
      }

      .cls-21 {
        stroke-miterlimit: 10;
        stroke-width: 1px;
      }

      .cls-22 {
        stroke-miterlimit: 10;
        stroke-width: 1px;
      }

      .cls-5 {
        fill: #9cd7ff;
      }

      .cls-6 {
        fill: #bdbdc6;
      }

      .cls-7 {
        fill: #fff;
      }

      .cls-8 {
        fill: none;
      }

      .cls-9 {
        fill: #151f38;
      }

      .cls-10 {
        fill: #0e3f3a;
      }
    </style>
  </defs>
  <!-- Generator: Adobe Illustrator 28.7.3, SVG Export Plug-In . SVG Version: 1.2.0 Build 164)  -->
  <g>
    <g id="Camada_1">
      <g id="Camada_2">
        <g id="sobrancelha">
          <g>
            <path class="cls-6" d="M406.4,672.6s-7.3-10.9-37.2-17.3c-29.9-6.4-39.6,5.4-39.6,5.4,0,0-2.1,25.3,35,24.9s41.8-12.9,41.8-12.9Z"/>
            <path class="cls-5" d="M383.8,713.6l3.4-48.9s.6-15.1.6-25.4l-6.5-71.1-8-52.2-27.3,5,12.2,108.4s.2,9.7-.4,16.4l-.3,6.1-4.2,52.4,30.4,9.3h0Z"/>
            <path class="cls-4" d="M406.6,672.3s-4.2,12.9-41.8,12.9-35-24.9-35-24.9l-2.3,2.5-4.4,8.5-19.1,81-5.3,28.1s-.3,9.8,16.6,11.5c0,0,24.8,3.4,43.4,20,0,0,13.2,14.2,68.4,15.2,0,0,41.7-.3,66-18.5,2-1.5,3.2-3.9,3.4-6.4.9-12.1,1.8-49.3-19-66.1,0,0-12.2-9.8-49.7-13.9,0,0-22.7-8.7-16.3-37.3.7-3,0-6.1-1.8-8.5l-3.2-4h0v-.2Z"/>
            <ellipse class="cls-26" cx="370.5" cy="724.8" rx=".9" ry="2.3" transform="translate(-403.9 474.3) rotate(-45)"/>
            <path class="cls-1" d="M372.2,725c11.5-10,27.3-13.7,42.3-11.6,1.6.2,2.2-2.2.7-2.4-15.8-2.2-32.5,1.6-44.8,12.2-1.2,1.1.6,2.8,1.8,1.8h0Z"/>
            <ellipse class="cls-25" cx="374.3" cy="729.1" rx=".9" ry="2.3" transform="translate(-345.8 337.7) rotate(-34.3)"/>
            <path class="cls-1" d="M428,721.1c-4.4-1.3-9.2-1.3-13.7-1.2-13.6.4-27,3.9-39.6,8.6-1.5.5-.9,3,.7,2.4,12.5-4.6,25.6-8.2,39-8.5,4.3,0,9,0,13,1.1,1.5.5,2.2-2,.7-2.4h0Z"/>
            <ellipse class="cls-23" cx="386.1" cy="746.2" rx=".9" ry="2.3" transform="translate(-448.7 840.7) rotate(-69.1)"/>
            <path class="cls-1" d="M387.4,745.1c8.5-13.2,25.2-20.3,40.6-21,1.6,0,1.6-2.6,0-2.5-16.3.8-33.7,8.3-42.8,22.2-.9,1.4,1.3,2.6,2.2,1.3h0Z"/>
            <path class="cls-1" d="M414.7,712.6c-12.1,7.2-23.9,18.1-29.5,31.2-.6,1.5,1.5,2.7,2.2,1.3,5.6-12.7,16.9-23.4,28.6-30.3,1.4-.8,0-3-1.3-2.2h0Z"/>
            <path class="cls-6" d="M179.4,672.6s7.3-10.9,37.2-17.3c29.9-6.4,39.6,5.4,39.6,5.4,0,0,2.1,25.3-35,24.9s-41.8-12.9-41.8-12.9Z"/>
            <path class="cls-5" d="M32.9,555.7l-3.4-48.9s-.6-15.1-.6-25.4l6.5-71.1,8-52.2,27.3,5-12.2,108.4s-.2,9.8.4,16.4l.3,6.1,4.2,52.4-30.4,9.3h0Z"/>
            <path class="cls-5" d="M209.6,713.6l-3.4-48.9s-.6-15.1-.6-25.4l6.5-71.1,8-52.2,27.3,5-12.2,108.4s-.2,9.7.4,16.4l.3,6.1,4.2,52.4-30.4,9.3h0Z"/>
            <path class="cls-4" d="M179.7,672.3s4.2,12.9,41.8,12.9,35-24.9,35-24.9l2.3,2.5,4.4,8.5,19.1,81,5.3,28.1s.3,9.8-16.6,11.5c0,0-24.8,3.4-43.4,20,0,0-13.2,14.2-68.4,15.2,0,0-41.7-.3-66-18.5-2-1.5-3.2-3.9-3.4-6.4-.9-12.1-1.8-49.3,19-66.1,0,0,12.2-9.8,49.7-13.9,0,0,22.7-8.7,16.3-37.3-.7-3,0-6.1,1.8-8.5l3.2-4h0v-.2Z"/>
            <ellipse class="cls-26" cx="215.7" cy="724.8" rx="2.3" ry=".9" transform="translate(-449.3 364.8) rotate(-45)"/>
            <path class="cls-1" d="M215.9,723.2c-12.2-10.6-28.8-14.5-44.8-12.2-1.6.2-.9,2.6.7,2.4,14.9-2.1,30.8,1.6,42.3,11.6,1.2,1,3-.7,1.8-1.8h0Z"/>
            <ellipse class="cls-25" cx="212.2" cy="731.1" rx="2.3" ry=".9" transform="translate(-511.4 494.4) rotate(-55.7)"/>
            <path class="cls-1" d="M159,723.5c4.2-1.2,8.9-1.2,13-1.1,13.3.3,26.5,3.9,39,8.5,1.5.5,2.2-1.9.7-2.4-12.7-4.7-26.1-8.2-39.6-8.6-4.5,0-9.3,0-13.7,1.2-1.5.5-.9,2.9.7,2.4h0Z"/>
            <ellipse class="cls-24" cx="200.9" cy="744.8" rx="2.3" ry=".9" transform="translate(-252.5 120.7) rotate(-20.9)"/>
            <path class="cls-1" d="M201.1,743.8c-9-14-26.5-21.5-42.7-22.2-1.6,0-1.6,2.4,0,2.5,15.4.7,32.1,7.8,40.6,21,.9,1.3,3,0,2.2-1.3h0Z"/>
            <path class="cls-1" d="M170.3,714.8c11.7,7,23.1,17.6,28.6,30.3.6,1.5,2.8.2,2.2-1.3-5.8-13.1-17.5-24.1-29.5-31.2-1.4-.8-2.6,1.3-1.3,2.2h0Z"/>
            <path class="cls-5" d="M582.7,536.5l3.4-48.9s.6-15.1.6-25.4l-6.5-71.1-8-52.2-27.3,5,12.2,108.4s.2,9.8-.4,16.4l-.3,6.1-4.2,52.4,30.4,9.3h0Z"/>
            <path class="cls-5" d="M49.9,554.2s32.8-7.2,48.5,31.1c0,0,8,16.9,22.3,28.9,0,0,9.2,21.1-18.6,18.9,0,0-10.9-1.5-15.2-20.5,0-.2-.3-.2-.3,0-.6,4.6-.9,22.8,5.7,33,5.3,8.2,9.6,12.4,11.8,16.1,2.2,3.6,2.7,8,1.1,11.8-2,5-7.6,9.6-22.1,5.5,0,0-18.1-6-22.1-36.4,0,0,2,28.4,22.1,36.4,0,0-11.4,23.1-32,2.2,0,0-9.6-9.5-10.2-34.7,0,0,.5,23.7,9.5,33.8,0,0-18.7,13.3-27.9-13.3l-3.4-27.3,3.4,27.3s-16.9,5.3-19.9-14.9c-3-20.2,1.1-51.2,1.1-51.2,0,0,4.2-43.5,46.5-46.6h-.3Z"/>
            <path class="cls-5" d="M27.5,561s-5-17.3,20.7-21c25.7-3.7,27.9,18.6,27.9,18.6,0,0-20.5-11.9-48.6,2.4h0Z"/>
            <circle class="cls-5" cx="305.2" cy="297.8" r="273.9"/>
            <ellipse class="cls-18" cx="160.7" cy="117.9" rx="18.3" ry="9" transform="translate(-36.3 148.2) rotate(-45)"/>
            <path class="cls-3" d="M173.1,104.4s11.8,6.6,0,22.3-24.4,4.8-24.4,4.8"/>
            <path class="cls-3" d="M164.3,133.8s3.3,4,6.6,4.2c2.7.2,8.4-7.8,10.1-10.5.5-.8.7-1.8.2-2.6-1-1.7-2.3-3.2-4.3-3.6"/>
            <circle class="cls-3" cx="309.8" cy="117.6" r="13"/>
            <ellipse class="cls-3" cx="307.5" cy="39.6" rx="10.7" ry="6.1"/>
            <path class="cls-3" d="M296.8,39.6s-2.1,12.4,10.7,11.9c12.8-.5,12.3-7.2,10.7-11.9"/>
            <path class="cls-3" d="M299.2,48.8s5,3,3.8,16.6c0,0,6.3,6.4,13.6,0,0,0-3.1-8.8,0-16.4"/>
            <ellipse class="cls-14" cx="243.7" cy="34.4" rx="15.3" ry="7.8" transform="translate(-1 61.3) rotate(-14.3)"/>
            <path class="cls-3" d="M229,38.6s1.9,15.1,18.9,12.2c17-2.9,10.8-19.8,10.8-19.8"/>
            <path class="cls-3" d="M239.9,51.3s2.9.4,3.9,8.9c0,0,9.1,2.3,13.9-4.5,0,0-2.3-.7-2.6-8.1"/>
            <path class="cls-3" d="M288.6,8.5s20.2-13.7,36.1,2.5c0,0,.7,4.6-4.1,7.5,0,0-2.4,2.2-.3,5.5l-25.9.2s1.5-1.6-.2-5.4c0,0-7.5-1.7-5.6-10.3h0Z"/>
            <path class="cls-3" d="M378.2,16.6s23.4-6.8,33.5,13.6c0,0-.8,4.6-6.2,5.8,0,0-3,1.3-2,5.1l-24.7-7.9s2-1.1,1.5-5.2c0,0-6.6-4-2.1-11.5h0Z"/>
            <path class="cls-3" d="M514.5,97s23.7,5.9,22.1,28.6c0,0-3,3.6-8.3,1.9,0,0-3.2-.3-4.3,3.4l-17.4-19.2s2.3,0,3.9-3.7c0,0-3.7-6.7,4-11h0Z"/>
            <path class="cls-3" d="M579,297.8h7.2s3.8-12.4,12.2-12.7,9.9,16.2,9.9,16.2c0,0,1.8,26.7-9.9,27.2s-11.6-13.2-11.6-13.2l-8.3-.5.5-17h0Z"/>
            <path class="cls-3" d="M558.9,241.1s4.3-6.4,11.1,0c6.9,6.4,9.1.5,9.1.5,0,0,10.1-14.1-4.6-24.4,0,0-7.4-2.2-9.5,5.1,0,0,.4,5.2-6.1,4.6,0,0-6.3,4.9,0,14.2h0Z"/>
            <ellipse class="cls-11" cx="533.8" cy="347.3" rx="17" ry="8.3" transform="translate(53.6 765.6) rotate(-74.1)"/>
            <path class="cls-3" d="M541.6,333.4s-5.8-10.3-18.6.4c-6,5-8.3,13.1-5.4,20.3,1.8,4.6,5.3,8.9,11.9,9.9"/>
            <ellipse class="cls-19" cx="450.4" cy="121.4" rx="9.4" ry="17.8" transform="translate(-.4 241.5) rotate(-30)"/>
            <path class="cls-3" d="M442.4,105.5s-12,3.1-10.4,20.3c0,0,1.3,5.9-7.4,9.1,0,0,3.1,9.1,15.5,11.3,0,0-1.7-6.4,3.6-6.6s6.9,2,15.7-2.9"/>
            <ellipse class="cls-20" cx="429.2" cy="416.1" rx="13.7" ry="10.1" transform="translate(-150.7 561.6) rotate(-58.2)"/>
            <path class="cls-3" d="M426.1,428.7s-16.8,1.6-15.7-13c.6-8,6.4-14.8,14.3-15.8,4.1-.5,8.7.6,12.8,5.4"/>
            <ellipse class="cls-21" cx="460" cy="505" rx="16.2" ry="6.9" transform="translate(-204.8 348.2) rotate(-34.4)"/>
            <path class="cls-3" d="M446.6,513.4s-5.5-1.5-2.2-16.9c0,0,.8-1.7,0-3.3-.6-1.4-.8-2.9,0-4.2,1.2-2.6,4-6,9.9-5,1,.2,1.9.9,2.1,1.9.3,1.1,1.2,2.5,3.7,3,0,0,13.6,1.2,13.4,6.1"/>
            <ellipse class="cls-22" cx="378.6" cy="554.6" rx="15.9" ry="4.7" transform="translate(-141.9 130.4) rotate(-16.5)"/>
            <path class="cls-3" d="M363.7,557.5s-1.7-5.5,1.9-12c.3-.5.7-1.1,1.1-1.5.7-.8,2.3-3.5,2.2-10.7,0-.7.2-1.3.7-1.7,1.1-1.1,3.7-2.9,7.6-2,.5,0,.9.5,1.1,1,.5,2.1,2.1,7.8,5.1,8.4,0,0,10,3.7,10.8,10.7"/>
            <ellipse class="cls-13" cx="259.3" cy="523" rx="10.4" ry="16.9" transform="translate(-315 628.1) rotate(-74)"/>
            <path class="cls-3" d="M275.1,522.4s-3.1-6.1-.6-11,.2-1.4-.4-1.8c-2.4-1.8-8.8-5.8-16.1-5-.4,0-.7.3-.8.6-.5,1.6-2.5,6.1-7.8,8.3"/>
            <ellipse class="cls-18" cx="157" cy="499.3" rx="9.9" ry="16.1" transform="translate(-307.1 257.3) rotate(-45)"/>
            <path class="cls-3" d="M169.6,509.1s4.3-4.7,3.9-13.4c0,0,.9-4.5,4.4-3.7.2,0,.4-.2.3-.4-1-2.5-5.9-12.4-16.1-13.1-.3,0-.6.2-.6.5,0,1-.5,2.8-2.2,3.2,0,0-10.9.5-14.1,6.3"/>
            <ellipse class="cls-16" cx="176.1" cy="416.5" rx="10.8" ry="15" transform="translate(-222.1 202.2) rotate(-38.8)"/>
            <path class="cls-3" d="M164.6,407.9s8.1-15.1,21.8-3.4c15,12.9,0,23.9,0,23.4"/>
            <ellipse class="cls-12" cx="88.9" cy="209.3" rx="16.2" ry="9.9" transform="translate(-138.2 222.4) rotate(-70.3)"/>
            <path class="cls-3" d="M85.1,224.4s6,1.9,13.8-2.2c0,0,4.4-1.1,5.2,2.4,0,.2.3.3.5,0,1.8-2,8.8-10.6,5-20.2,0-.3-.4-.4-.8-.3-.9.3-2.8.7-3.8-.6,0,0-5.2-9.6-11.7-10.1"/>
            <path class="cls-3" d="M30.9,297.8h-7.2s-3.8-12.4-12.2-12.7-9.9,16.2-9.9,16.2c0,0-1.8,26.7,9.9,27.2,11.7.5,11.6-13.2,11.6-13.2l8.3-.5-.5-17h0Z"/>
            <path class="cls-3" d="M49.8,158.2c.3-5.4,2.7-22,19.5-26.7,1.7-.5,3.4,0,4.5,1.4.9,1.2,1.8,3,1.8,5.6,0,0,.6,3.2,4.5,3.3l-13.8,21.9s-.6-2.2-4.6-2.8c0,0-4.7,4.6-10.2.4-.9-.7-1.5-1.8-1.4-3h-.2Z"/>
            <path class="cls-3" d="M487.2,502.9s5.7,4.7,5.1,8.9c-.2,1.5.4,3.1,1.5,4.2,2.3,2.4,6.7,5,13.1.7,0,0,19-13,13.3-23.9,0,0-.7-3-4.1-5.2-.8-.5-1.8-.7-2.8-.6-1.4.2-3.9,0-6.8-3.3l-19.5,19.2h0Z"/>
            <path class="cls-3" d="M535.2,446.5l3,2.1s-2,10.3,4.3,12.5,8.8.6,8.8.6c0,0,15.5-6,14.6-26.7,0-2-.7-3.9-2-5.4-2.3-2.7-7.1-5-16.9.9l-1.6-1-10,16.8h0Z"/>
            <path class="cls-3" d="M172.6,56.8l-1.6-3.3s6.6-8.2,2.1-13-7.5-4.6-7.5-4.6c0,0-16.5-1.9-25.3,16.8-.8,1.8-1.2,3.8-.8,5.7.8,3.4,4,7.7,15.4,7.1l1,1.6,16.7-10.1h0Z"/>
            <ellipse class="cls-17" cx="65.3" cy="473.4" rx="4.7" ry="15.9" transform="translate(-305.3 171.7) rotate(-43)"/>
            <path class="cls-3" d="M55.5,461.4s4.1-4,11.6-3.7c.6,0,1.3,0,1.9.3,1.1.3,4.2.5,10.6-2.9.6-.3,1.7-.8,1.8,0,.3,1.9,2.5,4.2,4,6.3.3.4,1.1.7.7,1-1.7,1.4-6.1,5.4-5.2,8.3,0,0,1.2,10.6-4.8,14.5"/>
            <circle class="cls-3" cx="493.6" cy="216.8" r="13"/>
            <ellipse class="cls-15" cx="67.1" cy="352" rx="5.5" ry="14.4" transform="translate(-73.5 22.4) rotate(-12.3)"/>
            <path class="cls-3" d="M62.9,338.4s4.5-7.2,13.5-2.8c6.4,3.2,6.7,14.6,6.3,21.1-.2,4.3-2.9,8.1-7,9.4-2.2.7-4.8.8-7.5-1"/>
            <path class="cls-3" d="M81.8,360.5s3.5-3.9,7.7-2.4c.4.2.9,0,1-.6.5-2.5,1.5-9.4-2.1-14.2-.2-.2-.5-.2-.8,0-.7.7-2.5,1.8-5.8.7"/>
            <path class="cls-5" d="M567.8,527.9s-32.8-7.2-48.5,31.1c0,0-8,16.9-22.3,28.9,0,0-9.2,21.1,18.6,18.9,0,0,10.9-1.5,15.2-20.5,0-.2.3-.2.3,0,.6,4.6.9,22.8-5.7,33-5.3,8.2-9.6,12.4-11.8,16.1s-2.7,8-1.1,11.8c2,5,7.6,9.6,22.1,5.5,0,0,18.1-6,22.1-36.4,0,0-2,28.4-22.1,36.4,0,0,11.4,23.1,32,2.2,0,0,9.6-9.5,10.2-34.7,0,0-.5,23.7-9.5,33.8,0,0,18.7,13.3,27.9-13.3l3.4-27.3-3.4,27.3s16.9,5.3,19.9-14.9c3-20.2-1.1-51.2-1.1-51.2,0,0-4.2-43.5-46.5-46.6h.3Z"/>
            <path class="cls-5" d="M590.3,534.8s5-17.3-20.7-21c-25.7-3.7-27.9,18.6-27.9,18.6,0,0,20.5-11.9,48.6,2.4h0Z"/>
            <path class="cls-8" d="M283.1,420.9c18.8-12.4,37.6-12.4,56.4,0"/>
            <path class="cls-7" d="M468.5,297.7c-1.3,29.7-23.1,48.2-58.3,54-34.6,5.8-64.1-21.8-64.6-56.2-.8-61,29.3-61.3,64.7-61,35.7.3,60.3,15,58.2,63.1h0Z"/>
            <path class="cls-10" d="M440.8,291.7c0,24.8-18,45.3-43.5,43.8-25.3-1.4-43.1-26.3-43.6-47.4-.6-24.8,15.4-41.1,40.9-41.1s46,20.1,46,44.8h0Z"/>
            <path class="cls-2" d="M427.2,289.7c0,19.6-13.6,35.8-32.8,34.6-19.1-1.1-32.5-20.8-32.9-37.6-.4-19.6,11.6-32.5,30.8-32.5s34.8,15.8,34.8,35.4h0Z"/>
            <path class="cls-7" d="M139.4,297.7c1.3,29.7,23.1,48.2,58.3,54,34.6,5.8,64.1-21.8,64.6-56.2.8-61-30-59.3-65.3-59-35.7.3-59.7,13-57.6,61.1h0Z"/>
            <path class="cls-10" d="M164.3,295c0,24.8,18,45.3,43.5,43.8,25.3-1.4,43.1-26.3,43.6-47.5.6-24.8-15.4-41.1-40.9-41.1s-46,20.1-46,44.8h0Z"/>
            <path class="cls-2" d="M175.1,291.6c0,19.6,13.6,35.8,32.8,34.6,19.1-1.1,32.5-20.8,32.9-37.6.4-19.6-11.6-32.5-30.8-32.5s-34.8,15.8-34.8,35.4h0Z"/>
            <path class="cls-9" d="M333.5,199.7s-4.1,15.9,21.4,23.9c2.2.7,4.5,1.1,6.9,1.1,14.4,0,74.4,1,92,7.1,10,3.5,14.2,6.2,15.9,8.1,1.5,1.6,3.9,2.1,5.7.8,4-2.8,7.7-8.8-1.1-21.4-13.8-20.1-79.5-3.5-79.5-3.5,0,0-38.6,7.8-61.3-16h0Z"/>
            <path class="cls-9" d="M281,200.4s3.9,16-21.6,23.6c-2.2.7-4.6,1-6.9,1-14.3,0-74.4.2-92.1,6.1-10,3.4-14.3,6.1-16,7.9-1.5,1.6-3.9,2-5.7.8-3.9-2.8-7.6-8.9,1.3-21.4,14-19.9,79.6-2.6,79.6-2.6,0,0,38.5,8.2,61.4-15.3Z"/>
          </g>
        </g>
      </g>
    </g>
  </g>
</svg>