<?xml version="1.0" encoding="UTF-8"?>
<svg id="Camada_2" xmlns="http://www.w3.org/2000/svg" xmlns:xlink="http://www.w3.org/1999/xlink" viewBox="0 0 731.78 874.23">
  <defs>
    <style>
      .cls-1, .cls-2 {
        fill: none;
      }

      .cls-3 {
        fill: #e0e0e0;
      }

      .cls-4 {
        fill: #011914;
      }

      .cls-4, .cls-5, .cls-6, .cls-7, .cls-8, .cls-9, .cls-10, .cls-2, .cls-11, .cls-12 {
        stroke-miterlimit: 10;
      }

      .cls-4, .cls-6, .cls-8, .cls-9, .cls-10, .cls-2, .cls-11, .cls-12 {
        stroke: #030084;
      }

      .cls-5 {
        fill: #ea548e;
        stroke: #a3003f;
      }

      .cls-6 {
        fill: #cecece;
      }

      .cls-13 {
        clip-path: url(#clippath-1);
      }

      .cls-7 {
        fill: #707070;
        stroke: #e0e0e0;
        stroke-width: .25px;
      }

      .cls-8 {
        fill: #9cd7ff;
      }

      .cls-9 {
        fill: #bdbdc6;
      }

      .cls-10 {
        fill: #fff;
      }

      .cls-11 {
        fill: #151f38;
      }

      .cls-12 {
        fill: #0e3f3a;
      }

      .cls-14 {
        fill: #030084;
      }

      .cls-15 {
        clip-path: url(#clippath);
      }
    </style>
    <clipPath id="clippath">
      <path class="cls-1" d="M226.87,244.96s4.1-3.75,58.23,19.25,52.66,19.78,52.66,19.78c0,0,15.04,94.94-91.22,64.54,0,0-86.29-39.31-21.16-102.4"/>
    </clipPath>
    <clipPath id="clippath-1">
      <path class="cls-1" d="M526.39,236.78s-4.1-4.03-58.23,20.68c-54.12,24.71-52.66,21.26-52.66,21.26,0,0-15.04,102.02,91.22,69.35,0,0,86.29-42.24,21.16-110.04"/>
    </clipPath>
  </defs>
  <g id="boca">
    <g>
      <path class="cls-8" d="M668.41,467.21s7.22-21.04-41.16-57.67l-66.08-48.54,22.81-33.26,55.62,48.75s50.94,34.21,62.85,62.47c0,0,9.19,30.69,17.36,39.51,0,0,24,31.04,2.55,62.95,0,0-3.06,30.38-15.32,51.57,0,0-13.28,8.94-27.83,4.6,0,0-2.81-.77-6.89-6.38,0,0-23.74,6.38-36.51-.77,0,0-14.04-25.79-20.17-25.02s-8.42-13.28-8.42-13.28c0,0-8.68-19.4,3.57-34.21,0,0,3.83-6.64,14.55-11.49,0,0,21.77-11.23,25.95-17.11,0,0-1.86-10.04,17.12-22.13Z"/>
      <path class="cls-2" d="M651.3,489.34s27.16-16.78,44.01-5.58c0,0,32.43,12.22,27.06,57.67"/>
      <path class="cls-2" d="M616.81,565.56s11.09.89,13.39-4.99,0-16.34,0-16.34c0,0,2.3-15.57,9.7-18.13,0,0,12.26-5.36,19.4,2.04s-4.09,15.06-4.09,15.06"/>
      <path class="cls-2" d="M677.94,562.71c-.39-.26-34.16,17.3-40.6,7.82-6.89-10.14-6.24-19.65-6.24-19.65"/>
      <path class="cls-2" d="M707.05,593s-8.43-6.38-16.34-4.09l-18.38,2.3"/>
      <path class="cls-2" d="M660.5,529.64s-3.07-8.13,1.18-11.45"/>
      <path class="cls-2" d="M694.03,522.02l8.04,15.7s6.77,13.66-4.72,17.87"/>
      <path class="cls-8" d="M63.37,469.63s-7.22-21.04,41.16-57.67l66.08-48.54-22.81-33.26-55.62,48.75s-50.94,34.21-62.85,62.47c0,0-9.19,30.69-17.36,39.51,0,0-24,31.04-2.55,62.95,0,0,3.06,30.38,15.32,51.57,0,0,13.28,8.94,27.83,4.6,0,0,2.81-.77,6.89-6.38,0,0,23.74,6.38,36.51-.77,0,0,14.04-25.79,20.17-25.02s8.42-13.28,8.42-13.28c0,0,8.68-19.4-3.57-34.21,0,0-3.83-6.64-14.55-11.49,0,0-21.77-11.23-25.95-17.11,0,0,1.86-10.04-17.12-22.13Z"/>
      <path class="cls-2" d="M80.48,491.76s-27.16-16.78-44.01-5.58c0,0-32.43,12.22-27.06,57.67"/>
      <path class="cls-2" d="M114.97,567.98s-11.09.89-13.39-4.99,0-16.34,0-16.34c0,0-2.3-15.57-9.7-18.13,0,0-12.26-5.36-19.4,2.04s4.09,15.06,4.09,15.06"/>
      <path class="cls-2" d="M53.84,565.13c.39-.26,34.16,17.3,40.6,7.82,6.89-10.14,6.24-19.65,6.24-19.65"/>
      <path class="cls-2" d="M24.73,595.42s8.43-6.38,16.34-4.09l18.38,2.3"/>
      <path class="cls-2" d="M71.28,532.06s3.07-8.13-1.18-11.45"/>
      <path class="cls-2" d="M37.75,524.44l-8.04,15.7s-6.77,13.66,4.72,17.87"/>
      <path class="cls-9" d="M492.22,718.43s-7.3-11.05-37.42-17.43-39.77,5.4-39.77,5.4c0,0-2.11,25.36,35.17,24.98s42.02-12.95,42.02-12.95Z"/>
      <path class="cls-8" d="M429.77,729.34l31.66-64.34s5.33-5.11,3.94-34.72-15.5-68.11-15.5-68.11l-15.5-72.83,34.2-10.87,17.57,70.79s12.52,55.49,17.54,74.81c.88,3.39,1.29,6.92,1.41,10.53.22,6.83,1.82,18.99-4.73,31.92l-28.22,62.81-11.23,34.72-40.34-7.15,9.19-27.57Z"/>
      <path class="cls-6" d="M492.38,718.14s-4.23,12.95-42.02,12.95-35.17-24.98-35.17-24.98l-2.28,2.51-4.43,8.51-19.22,81.36-5.29,28.26s-.34,9.87,16.68,11.57c0,0,24.85,3.4,43.57,20.09,0,0,13.28,14.3,68.77,15.32,0,0,41.91-.31,66.38-18.63,2.03-1.52,3.25-3.88,3.44-6.41.91-12.19,1.82-49.58-19.1-66.54,0,0-12.26-9.87-50.04-13.96,0,0-22.77-8.73-16.36-37.54.66-2.97.02-6.07-1.75-8.54l-3.19-3.97Z"/>
      <ellipse class="cls-7" cx="456.18" cy="770.91" rx=".94" ry="2.29" transform="translate(-411.51 548.36) rotate(-45)"/>
      <path class="cls-3" d="M457.72,771.14c11.56-10.07,27.55-13.81,42.53-11.71,1.57.22,2.25-2.19.66-2.41-15.94-2.24-32.67,1.63-44.96,12.35-1.21,1.06.56,2.82,1.77,1.77h0Z"/>
      <ellipse class="cls-7" cx="459.79" cy="776.4" rx=".94" ry="2.29" transform="translate(-357.23 393.42) rotate(-34.25)"/>
      <path class="cls-3" d="M513.85,767.28c-4.37-1.28-9.3-1.3-13.8-1.18-13.66.36-27.08,3.94-39.84,8.61-1.5.55-.85,2.97.66,2.41,12.56-4.6,25.74-8.16,39.18-8.52,4.29-.12,8.97-.13,13.14,1.09,1.55.45,2.21-1.96.66-2.41h0Z"/>
      <ellipse class="cls-7" cx="471.46" cy="791.74" rx=".94" ry="2.29" transform="translate(-436.27 950.33) rotate(-69.14)"/>
      <path class="cls-3" d="M473.04,791.33c8.52-13.29,25.34-20.39,40.79-21.1,1.6-.07,1.61-2.57,0-2.5-16.37.76-33.93,8.26-42.95,22.34-.87,1.36,1.29,2.61,2.16,1.26h0Z"/>
      <path class="cls-3" d="M500.61,758.68c-12.16,7.2-23.97,18.17-29.73,31.38-.64,1.46,1.52,2.73,2.16,1.26,5.6-12.84,17.01-23.5,28.83-30.49,1.38-.82.13-2.98-1.26-2.16h0Z"/>
      <path class="cls-9" d="M253.6,651.72s26.55-10.47,21.7-30.13h0s-11.76-13.94-26.69-8.37c-14.93,5.56-35.2,16.66-35.2,16.66,0,0,0,0,0,0,0,0-18.7,18.69-10.87,21.63.71.27,1.42.55,2.11.86,6.14,2.8,31.77,13.13,48.94-.65,0,0,0,0,0,0Z"/>
      <path class="cls-14" d="M631.99,688.97c1.93,0,1.93-3,0-3s-1.93,3,0,3h0Z"/>
      <path class="cls-8" d="M248.3,676.23l-33.27-43.91s-9.93-13.02-4.06-22.98l36.29-68.99,25.76-46.45,31.15,17.4-54.13,98.3s-5.01,10.25-.4,13.32l3.84,3.28,25.16,24.24-30.33,25.79Z"/>
      <path class="cls-6" d="M200.97,651.06s29.65,14.83,49.49,2.86c2.29-1.38,4.6-2.74,6.96-4.01,6.81-3.65,20.14-12.87,17.89-28.32-.47-3.2,11.8,30.18,11.49,28.75l9.53,81.04c.67,5.39-8.44,10.19-14.71,12.83-3.24,1.36-6.75,1.91-10.27,1.79-15.04-.52-33.09,4.79-33.09,4.79l-48.15,8.51c-56.51,7.83-67.4,0-67.4,0,0,0-20.77-10.21-18.38-40.4s22.47-32.79,22.47-32.79l52.77-7.15c20.09-5.11,21.48-28.62,21.48-28.62"/>
      <ellipse class="cls-7" cx="190.6" cy="698.08" rx="2.29" ry=".94" transform="translate(-83.66 28.43) rotate(-7)"/>
      <path class="cls-3" d="M175.63,681.33c7.94,1.35,13.55,7.78,13.72,15.82.04,1.61,2.54,1.61,2.5,0-.2-9.06-6.5-16.69-15.56-18.23-1.57-.27-2.25,2.14-.66,2.41h0Z"/>
      <ellipse class="cls-7" cx="199.51" cy="696.47" rx="2.29" ry=".94" transform="translate(-83.4 29.51) rotate(-7)"/>
      <path class="cls-3" d="M183.29,679.15c8.35.75,13.49,9.28,15.02,16.82.32,1.58,2.73.91,2.41-.66-1.77-8.71-7.79-17.79-17.43-18.65-1.6-.14-1.59,2.36,0,2.5h0Z"/>
      <ellipse class="cls-7" cx="205.26" cy="694.85" rx="2.29" ry=".94" transform="translate(-83.16 30.2) rotate(-7)"/>
      <path class="cls-3" d="M188.41,676.1c9.4.33,14.3,10.36,15.65,18.33.27,1.58,2.68.91,2.41-.66-1.56-9.19-7.51-19.79-18.06-20.17-1.61-.06-1.61,2.44,0,2.5h0Z"/>
      <ellipse class="cls-7" cx="211.04" cy="686.77" rx="2.29" ry=".94" transform="translate(-196.26 94.92) rotate(-17.45)"/>
      <path class="cls-3" d="M192.18,672.35c6.31,2.35,16.01,6.81,17.49,14.07.32,1.58,2.73.91,2.41-.66-1.67-8.23-12.11-13.17-19.24-15.82-1.51-.56-2.16,1.85-.66,2.41h0Z"/>
      <ellipse class="cls-7" cx="215.03" cy="681.42" rx="2.29" ry=".94" transform="translate(-270.61 157.28) rotate(-25.3)"/>
      <path class="cls-3" d="M194.67,669.12c6.78,2.17,15.27,5.89,18.87,12.34.78,1.41,2.94.15,2.16-1.26-3.95-7.08-12.94-11.11-20.37-13.49-1.54-.49-2.19,1.92-.66,2.41h0Z"/>
      <circle class="cls-8" cx="375.94" cy="296.85" r="275.35"/>
      <ellipse class="cls-5" cx="230.71" cy="115.93" rx="18.38" ry="9.02" transform="translate(-14.4 197.09) rotate(-45)"/>
      <path class="cls-5" d="M243.13,102.45s11.87,6.59,0,22.42-24.5,4.77-24.5,4.77"/>
      <path class="cls-5" d="M234.33,131.88s3.32,3.98,6.64,4.24c2.74.21,8.36-7.77,10.23-10.55.53-.78.66-1.82.18-2.63-1-1.69-2.29-3.18-4.31-3.64"/>
      <circle class="cls-5" cx="380.62" cy="115.6" r="13.15"/>
      <ellipse class="cls-5" cx="378.29" cy="37.17" rx="10.81" ry="6.13"/>
      <path class="cls-5" d="M367.48,37.17s-2.12,12.51,10.81,12,12.4-7.15,10.81-12"/>
      <path class="cls-5" d="M369.93,46.48s4.95,2.95,3.81,16.74c0,0,6.26,6.38,13.66,0,0,0-3.06-8.76,0-16.45"/>
      <ellipse class="cls-5" cx="314.18" cy="32.46" rx="15.42" ry="7.81" transform="translate(1.69 78.44) rotate(-14.27)"/>
      <path class="cls-5" d="M299.24,36.26s1.85,15.21,18.96,12.27,10.93-19.87,10.93-19.87"/>
      <path class="cls-5" d="M310.28,48.97s2.95.37,3.9,8.92c0,0,9.25,2.31,13.97-4.46,0,0-2.29-.7-2.55-8.08"/>
      <path class="cls-5" d="M359.31,5.94s20.26-13.79,36.26,2.55c0,0,.68,4.6-4.09,7.49,0,0-2.38,2.19-.34,5.52l-26.05.21s1.54-1.65-.16-5.39c0,0-7.49-1.7-5.62-10.38Z"/>
      <path class="cls-5" d="M449.34,14.1s23.54-6.81,33.67,13.7c0,0-.78,4.58-6.21,5.85,0,0-2.95,1.35-2.04,5.14l-24.83-7.9s1.98-1.09,1.52-5.18c0,0-6.59-3.95-2.11-11.61Z"/>
      <path class="cls-5" d="M586.41,94.9s23.77,5.93,22.24,28.75c0,0-2.98,3.57-8.31,1.94,0,0-3.22-.32-4.35,3.42l-17.51-19.29s2.26.05,3.92-3.71c0,0-3.72-6.72,4.01-11.1Z"/>
      <path class="cls-5" d="M651.3,296.85h7.24s3.83-12.54,12.26-12.79,9.96,16.34,9.96,16.34c0,0,1.79,26.81-9.96,27.32s-11.74-13.28-11.74-13.28l-8.28-.52.52-17.07Z"/>
      <path class="cls-5" d="M630.96,239.77s4.34-6.38,11.23,0c6.89,6.38,9.1.51,9.1.51,0,0,10.18-14.17-4.63-24.51,0,0-7.4-2.17-9.57,5.11,0,0,.38,5.23-6.13,4.6,0,0-6.26,4.85,0,14.3Z"/>
      <ellipse class="cls-5" cx="606.28" cy="347.02" rx="17.14" ry="8.26" transform="translate(106.19 834.78) rotate(-74.07)"/>
      <path class="cls-5" d="M613.65,332.63s-5.8-10.36-18.69.41c-5.96,4.98-8.3,13.2-5.43,20.42,1.81,4.57,5.32,8.88,12.05,10.04"/>
      <ellipse class="cls-5" cx="522.03" cy="119.5" rx="9.55" ry="17.95" transform="translate(10.19 277.02) rotate(-30)"/>
      <path class="cls-5" d="M513.9,103.56s-12.13,3.06-10.47,20.42c0,0,1.28,5.87-7.4,9.19,0,0,3.06,9.19,15.57,11.36,0,0-1.66-6.38,3.57-6.64s6.88,1.96,15.82-2.85"/>
      <ellipse class="cls-5" cx="500.38" cy="415.56" rx="13.83" ry="10.2" transform="translate(-116.42 622.01) rotate(-58.22)"/>
      <path class="cls-5" d="M497.52,428.48s-16.86,1.62-15.8-13.09c.58-8.05,6.42-14.93,14.42-15.89,4.1-.49,8.73.58,12.91,5.41"/>
      <ellipse class="cls-5" cx="531.56" cy="504.37" rx="16.34" ry="6.92" transform="translate(-192.06 388.99) rotate(-34.44)"/>
      <path class="cls-5" d="M518.08,513.61s-5.5-1.46-2.18-17.03c0,0,.77-1.7.01-3.29-.64-1.35-.77-2.88-.13-4.24,1.24-2.64,4.01-5.96,9.95-4.95,1.02.17,1.85.92,2.1,1.92.28,1.11,1.16,2.54,3.73,2.98,0,0,13.67,1.17,13.48,6.13"/>
      <ellipse class="cls-5" cx="450.03" cy="554.56" rx="16" ry="4.68" transform="translate(-139.18 150.95) rotate(-16.53)"/>
      <path class="cls-5" d="M434.8,557.97s-1.74-5.48,1.91-12.1c.31-.55.67-1.07,1.09-1.55.74-.83,2.32-3.48,2.21-10.85-.01-.65.23-1.27.69-1.73,1.14-1.13,3.67-2.93,7.59-1.99.52.13.94.52,1.06,1.05.49,2.13,2.07,7.85,5.11,8.4,0,0,10.12,3.72,10.92,10.79"/>
      <ellipse class="cls-5" cx="330.19" cy="523.86" rx="10.49" ry="17" transform="translate(-264.5 696.5) rotate(-73.96)"/>
      <path class="cls-5" d="M345.7,522.71s-3.11-6.1-.61-11.07c.32-.64.16-1.41-.42-1.83-2.42-1.78-8.84-5.83-16.24-5.05-.36.04-.66.28-.78.62-.54,1.56-2.51,6.08-7.82,8.3"/>
      <ellipse class="cls-5" cx="226.93" cy="499.5" rx="10.03" ry="16.25" transform="translate(-286.73 306.77) rotate(-45)"/>
      <path class="cls-5" d="M239.62,509.32s4.28-4.66,3.94-13.51c0,0,.92-4.46,4.38-3.73.23.05.43-.18.34-.4-1.04-2.5-5.87-12.55-16.21-13.2-.32-.02-.59.22-.63.53-.11.95-.54,2.81-2.17,3.19,0,0-10.98.54-14.24,6.29"/>
      <ellipse class="cls-5" cx="246.12" cy="416.77" rx="10.85" ry="15.06" transform="translate(-206.73 245.91) rotate(-38.77)"/>
      <path class="cls-5" d="M234.6,407.55s8.11-15.19,21.89-3.4c15.15,12.96.08,24.01,0,23.46"/>
      <ellipse class="cls-5" cx="136.73" cy="351.12" rx="5.49" ry="14.55" transform="translate(-71.78 37.27) rotate(-12.32)"/>
      <path class="cls-5" d="M132.28,337.76s4.52-7.23,13.58-2.76c6.4,3.16,6.69,14.72,6.31,21.24-.25,4.28-2.94,8.15-7,9.52-2.18.74-4.75.76-7.47-.96"/>
      <path class="cls-5" d="M151.3,359.93s3.53-3.86,7.65-2.43c.45.16.93-.11,1.03-.58.5-2.5,1.48-9.52-2.13-14.3-.18-.24-.53-.25-.75-.05-.7.66-2.46,1.75-5.8.67"/>
      <ellipse class="cls-5" cx="157.99" cy="207.39" rx="16.25" ry="10.03" transform="translate(-90.45 286.42) rotate(-70.35)"/>
      <path class="cls-5" d="M154.55,223.06s6.04,1.87,13.89-2.22c0,0,4.43-1.08,5.25,2.36.06.23.35.31.51.13,1.81-2.01,8.83-10.68,4.99-20.3-.12-.29-.45-.44-.75-.34-.91.3-2.77.71-3.81-.6,0,0-5.19-9.69-11.78-10.18"/>
      <path class="cls-5" d="M100.07,296.85h-7.24s-3.83-12.54-12.26-12.79-9.96,16.34-9.96,16.34c0,0-1.79,26.81,9.96,27.32s11.74-13.28,11.74-13.28l8.28-.52-.52-17.07Z"/>
      <path class="cls-5" d="M119.17,156.47c.34-5.44,2.74-22.1,19.56-26.84,1.65-.46,3.44.08,4.51,1.42.95,1.19,1.81,2.98,1.75,5.55,0,0,.55,3.19,4.46,3.28l-13.93,22.01s-.55-2.19-4.62-2.79c0,0-4.67,4.58-10.33.35-.94-.7-1.46-1.82-1.39-2.98Z"/>
      <path class="cls-5" d="M558.99,503.07s5.69,4.67,5.14,8.93c-.2,1.55.42,3.1,1.5,4.22,2.32,2.42,6.7,4.97,13.2.65,0,0,19.06-13.06,13.36-24,0,0-.7-2.99-4.11-5.23-.82-.53-1.8-.74-2.76-.57-1.38.24-3.92.04-6.75-3.31l-19.58,19.32Z"/>
      <path class="cls-5" d="M607.22,446.34l2.98,2.15s-2.04,10.38,4.26,12.6,8.77.6,8.77.6c0,0,15.56-6.05,14.66-26.78-.08-1.96-.71-3.89-1.97-5.39-2.27-2.69-7.11-4.96-17.03.93l-1.58-.95-10.08,16.85Z"/>
      <path class="cls-5" d="M242.57,54.48l-1.64-3.28s6.63-8.25,2.08-13.13-7.49-4.6-7.49-4.6c0,0-16.59-1.87-25.42,16.91-.83,1.77-1.18,3.78-.75,5.69.76,3.44,4,7.69,15.52,7.08l.96,1.58,16.75-10.24Z"/>
      <ellipse class="cls-5" cx="134.73" cy="473.45" rx="4.68" ry="16" transform="translate(-286.7 219.08) rotate(-43)"/>
      <path class="cls-5" d="M124.89,461.33s4.13-4,11.69-3.68c.63.03,1.26.12,1.87.29,1.07.29,4.15.53,10.69-2.86.57-.3,1.74-.79,1.85-.15.32,1.92,2.47,4.2,4.04,6.31.32.43,1.08.67.66,1.01-1.69,1.38-6.1,5.35-5.24,8.32,0,0,1.18,10.72-4.8,14.59"/>
      <circle class="cls-5" cx="565.35" cy="215.46" r="13.15"/>
      <g class="cls-15">
        <path class="cls-10" d="M211.23,296.71c1.3,29.92,23.24,48.45,58.65,54.3,34.83,5.76,64.53-21.87,64.99-56.46.81-61.3-30.17-59.57-65.73-59.26-35.94.32-60.01,13.07-57.9,61.41Z"/>
        <path class="cls-12" d="M247.22,287.72c0,24.88,18.11,45.47,43.66,44.02,25.4-1.44,43.3-26.43,43.79-47.75.57-24.87-15.52-41.32-41.11-41.32s-46.34,20.17-46.34,45.04Z"/>
        <path class="cls-4" d="M257.94,284.37c0,19.67,13.67,35.96,32.96,34.81,19.17-1.14,32.69-20.9,33.06-37.76.43-19.67-11.71-32.67-31.04-32.67s-34.99,15.95-34.99,35.62Z"/>
      </g>
      <g class="cls-13">
        <path class="cls-10" d="M542.19,296.71c-1.3,29.92-23.24,48.45-58.65,54.3-34.83,5.76-64.53-21.87-64.99-56.46-.81-61.3,29.55-61.62,65.11-61.3,35.94.32,60.63,15.11,58.52,63.45Z"/>
        <path class="cls-12" d="M506.2,287.72c0,24.88-18.11,45.47-43.66,44.02-25.4-1.44-43.3-26.43-43.79-47.75-.57-24.87,15.52-41.32,41.11-41.32s46.34,20.17,46.34,45.04Z"/>
        <path class="cls-4" d="M495.49,284.37c0,19.67-13.67,35.96-32.96,34.81-19.17-1.14-32.69-20.9-33.06-37.76-.43-19.67,11.71-32.67,31.04-32.67s34.99,15.95,34.99,35.62Z"/>
      </g>
      <path class="cls-11" d="M393.01,268.74s3.42,16.17,29.87,11.96c2.3-.37,4.54-1.07,6.64-2.09,13-6.3,67.51-32.32,86.04-34.72,10.55-1.36,15.57-.77,17.96.17,2.05.81,4.43.12,5.49-1.81,2.33-4.23,2.94-11.31-10.52-18.78-21.45-11.91-73.19,32.34-73.19,32.34,0,0-31.32,24.17-62.3,12.94Z"/>
      <path class="cls-11" d="M356.41,271.41s-3.42,16.17-29.87,11.96c-2.3-.37-4.54-1.07-6.64-2.09-13-6.3-67.51-32.32-86.04-34.72-10.55-1.36-15.57-.77-17.96.17-2.05.81-4.43.12-5.49-1.81-2.33-4.23-2.94-11.31,10.52-18.78,21.45-11.91,73.19,32.34,73.19,32.34,0,0,31.32,24.17,62.3,12.94Z"/>
      <path class="cls-2" d="M322.03,420.57s54.64-25.87,98.55,0"/>
    </g>
  </g>
</svg>